<svg width="12" height="19" viewBox="0 0 12 19" fill="none" xmlns="http://www.w3.org/2000/svg">
<path d="M4 16.5001C4 16.8956 3.8827 17.2823 3.66294 17.6112C3.44318 17.9401 3.13082 18.1964 2.76537 18.3478C2.39992 18.4992 1.99778 18.5388 1.60982 18.4616C1.22186 18.3845 0.865493 18.194 0.585787 17.9143C0.306082 17.6346 0.115601 17.2782 0.0384303 16.8902C-0.0387401 16.5023 0.000866562 16.1001 0.152242 15.7347C0.303617 15.3692 0.559963 15.0569 0.888861 14.8371C1.21776 14.6174 1.60444 14.5001 2 14.5001C2.53043 14.5001 3.03914 14.7108 3.41421 15.0858C3.78929 15.4609 4 15.9696 4 16.5001ZM2 7.50006C1.60444 7.50006 1.21776 7.61736 0.888861 7.83712C0.559963 8.05689 0.303617 8.36924 0.152242 8.7347C0.000866562 9.10015 -0.0387401 9.50228 0.0384303 9.89024C0.115601 10.2782 0.306082 10.6346 0.585787 10.9143C0.865493 11.194 1.22186 11.3845 1.60982 11.4616C1.99778 11.5388 2.39992 11.4992 2.76537 11.3478C3.13082 11.1964 3.44318 10.9401 3.66294 10.6112C3.8827 10.2823 4 9.89563 4 9.50006C4 8.96963 3.78929 8.46092 3.41421 8.08585C3.03914 7.71078 2.53043 7.50006 2 7.50006ZM2 0.500061C1.60444 0.500061 1.21776 0.617359 0.888861 0.837122C0.559963 1.05688 0.303617 1.36924 0.152242 1.73469C0.000866562 2.10015 -0.0387401 2.50228 0.0384303 2.89024C0.115601 3.2782 0.306082 3.63457 0.585787 3.91428C0.865493 4.19398 1.22186 4.38446 1.60982 4.46163C1.99778 4.5388 2.39992 4.4992 2.76537 4.34782C3.13082 4.19645 3.44318 3.9401 3.66294 3.6112C3.8827 3.2823 4 2.89562 4 2.50006C4 1.96963 3.78929 1.46092 3.41421 1.08585C3.03914 0.710775 2.53043 0.500061 2 0.500061ZM10 14.5001C9.60444 14.5001 9.21776 14.6174 8.88886 14.8371C8.55996 15.0569 8.30362 15.3692 8.15224 15.7347C8.00087 16.1001 7.96126 16.5023 8.03843 16.8902C8.1156 17.2782 8.30608 17.6346 8.58579 17.9143C8.86549 18.194 9.22186 18.3845 9.60982 18.4616C9.99778 18.5388 10.3999 18.4992 10.7654 18.3478C11.1308 18.1964 11.4432 17.9401 11.6629 17.6112C11.8827 17.2823 12 16.8956 12 16.5001C12 15.9696 11.7893 15.4609 11.4142 15.0858C11.0391 14.7108 10.5304 14.5001 10 14.5001ZM10 7.50006C9.60444 7.50006 9.21776 7.61736 8.88886 7.83712C8.55996 8.05689 8.30362 8.36924 8.15224 8.7347C8.00087 9.10015 7.96126 9.50228 8.03843 9.89024C8.1156 10.2782 8.30608 10.6346 8.58579 10.9143C8.86549 11.194 9.22186 11.3845 9.60982 11.4616C9.99778 11.5388 10.3999 11.4992 10.7654 11.3478C11.1308 11.1964 11.4432 10.9401 11.6629 10.6112C11.8827 10.2823 12 9.89563 12 9.50006C12 8.96963 11.7893 8.46092 11.4142 8.08585C11.0391 7.71078 10.5304 7.50006 10 7.50006ZM10 0.500061C9.60444 0.500061 9.21776 0.617359 8.88886 0.837122C8.55996 1.05688 8.30362 1.36924 8.15224 1.73469C8.00087 2.10015 7.96126 2.50228 8.03843 2.89024C8.1156 3.2782 8.30608 3.63457 8.58579 3.91428C8.86549 4.19398 9.22186 4.38446 9.60982 4.46163C9.99778 4.5388 10.3999 4.4992 10.7654 4.34782C11.1308 4.19645 11.4432 3.9401 11.6629 3.6112C11.8827 3.2823 12 2.89562 12 2.50006C12 1.96963 11.7893 1.46092 11.4142 1.08585C11.0391 0.710775 10.5304 0.500061 10 0.500061Z" fill="#838799"/>
</svg>
