<svg width="27" height="24" viewBox="0 0 27 24" fill="none" xmlns="http://www.w3.org/2000/svg">
<path fill-rule="evenodd" clip-rule="evenodd" d="M9.22494 24H0.725776V23.071C0.725776 22.6434 1.07242 22.2968 1.5 22.2968H1.65482V21.3678C1.65482 20.9402 2.00143 20.5936 2.42901 20.5936V6.81289H1.57741L0.570953 3.40643H5.06129V0H21.9387V3.40643H26.429L25.4226 6.81289H24.571V20.5936C24.9986 20.5936 25.3452 20.9402 25.3452 21.3678V22.2968H25.5C25.9276 22.2968 26.2742 22.6434 26.2742 23.071V24H17.7846V23.071C17.7846 22.6434 18.1313 22.2968 18.5588 22.2968H18.7137V21.3678C18.7137 20.9491 19.046 20.608 19.4613 20.594V13.0065C19.1875 9.9681 16.6096 7.58708 13.5 7.58708C10.3904 7.58708 7.81254 9.9681 7.5387 13.0065V20.5937C7.95841 20.6028 8.29589 20.9459 8.29589 21.3678V21.8323V22.2968H8.45071C8.87829 22.2968 9.22494 22.6434 9.22494 23.071V24Z" fill="white"/>
</svg>
