<svg width="27" height="26" viewBox="0 0 27 26" fill="none" xmlns="http://www.w3.org/2000/svg">
<path d="M15.6519 11.909C15.3959 11.909 15.1399 11.8115 14.9449 11.616C13.3854 10.0565 10.8479 10.056 9.28793 11.616C8.89793 12.0065 8.26393 12.0065 7.87393 11.616C7.48343 11.2255 7.48343 10.5925 7.87393 10.202C10.2134 7.86202 14.0199 7.86252 16.3589 10.202C16.7494 10.5925 16.7494 11.2255 16.3589 11.616C16.1639 11.8115 15.9074 11.909 15.6519 11.909Z" fill="#787878"/>
<path d="M14.9446 17.6135C13.4081 17.6135 11.8716 17.0285 10.7021 15.859C10.3116 15.4685 10.3116 14.8355 10.7021 14.445C11.0921 14.0545 11.7261 14.0545 12.1161 14.445C13.6756 16.0045 16.2131 16.005 17.7731 14.445C18.1631 14.0545 18.7971 14.0545 19.1871 14.445C19.5776 14.8355 19.5776 15.4685 19.1871 15.859C18.0171 17.0285 16.4806 17.6135 14.9446 17.6135Z" fill="#787878"/>
<path d="M18.4794 16.1515C18.2234 16.1515 17.9674 16.054 17.7724 15.8585C17.3819 15.468 17.3819 14.835 17.7724 14.4445L23.3584 8.85849C23.7484 8.46799 24.3824 8.46799 24.7724 8.85849C25.1629 9.24899 25.1629 9.88199 24.7724 10.2725L19.1864 15.8585C18.9914 16.054 18.7354 16.1515 18.4794 16.1515Z" fill="#787878"/>
<path d="M10.0653 24.5655C9.8093 24.5655 9.5533 24.468 9.3583 24.2725C8.9678 23.882 8.9678 23.249 9.3583 22.8585L12.4808 19.736C12.8708 19.3455 13.5048 19.3455 13.8948 19.736C14.2853 20.1265 14.2853 20.7595 13.8948 21.15L10.7723 24.2725C10.5773 24.468 10.3213 24.5655 10.0653 24.5655Z" fill="#787878"/>
<path d="M2.99402 17.4945C2.73802 17.4945 2.48202 17.397 2.28702 17.2015C1.89652 16.811 1.89652 16.178 2.28702 15.7875L7.87302 10.202C8.26352 9.81149 8.89702 9.81149 9.28701 10.202C9.67752 10.5925 9.67752 11.2255 9.28701 11.616L3.70102 17.2015C3.50552 17.3965 3.24952 17.4945 2.99402 17.4945Z" fill="#787878"/>
<path d="M13.8719 6.6175C13.6159 6.6175 13.3604 6.52 13.1649 6.325C12.7744 5.9345 12.7744 5.3015 13.1649 4.9105L16.2874 1.7875C16.6779 1.397 17.3109 1.397 17.7019 1.7875C18.0924 2.178 18.0924 2.811 17.7019 3.202L14.5794 6.325C14.3839 6.5195 14.1274 6.6175 13.8719 6.6175Z" fill="#787878"/>
<path d="M6.53 25.9975C4.9835 25.9975 3.437 25.4225 2.2875 24.2725C-0.0125 21.9725 -0.0125 18.087 2.2875 15.787C2.6775 15.3965 3.3115 15.3965 3.7015 15.787C4.092 16.1775 4.092 16.8105 3.7015 17.201C2.1685 18.734 2.1685 21.325 3.7015 22.858C5.2345 24.391 7.8255 24.391 9.3585 22.858C9.7485 22.4675 10.3825 22.4675 10.7725 22.858C11.163 23.2485 11.163 23.8815 10.7725 24.272C9.623 25.4225 8.0765 25.9975 6.53 25.9975Z" fill="#787878"/>
<path d="M24.065 10.5655C23.809 10.5655 23.553 10.468 23.358 10.2725C22.9675 9.882 22.9675 9.249 23.358 8.8585C24.891 7.3255 24.891 4.7345 23.358 3.2015C21.825 1.6685 19.234 1.6685 17.701 3.2015C17.311 3.592 16.677 3.592 16.287 3.2015C15.8965 2.811 15.8965 2.178 16.287 1.7875C18.587 -0.5125 22.4725 -0.5125 24.7725 1.7875C27.0725 4.0875 27.0725 7.973 24.7725 10.273C24.577 10.468 24.321 10.5655 24.065 10.5655Z" fill="#787878"/>
</svg>
