<svg width="24" height="24" viewBox="0 0 24 24" fill="none" xmlns="http://www.w3.org/2000/svg">
<path d="M20.4375 2.8125H16.257L15.7999 1.44197C15.5122 0.579516 14.7081 0 13.799 0H10.201C9.29184 0 8.4878 0.579516 8.19942 1.44197L7.74291 2.8125H3.5625C2.39934 2.8125 1.45312 3.75872 1.45312 4.92188V6.32812C1.45312 7.11131 2.15817 7.03125 2.91483 7.03125C9.40955 7.03125 15.298 7.03125 21.8438 7.03125C22.2324 7.03125 22.5469 6.71677 22.5469 6.32812V4.92188C22.5469 3.75872 21.6007 2.8125 20.4375 2.8125ZM9.22561 2.8125L9.53358 1.88691C9.62972 1.59919 9.89817 1.40625 10.201 1.40625H13.799C14.1018 1.40625 14.3703 1.59919 14.4658 1.88691L14.7741 2.8125H9.22561Z" fill="#E62E2E"/>
<path d="M3.03125 8.53125L4.15236 22.0815C4.25192 23.1753 5.15488 24 6.25283 24H17.7473C18.8452 24 19.7482 23.1753 19.8484 22.0753L20.9689 8.53125H3.03125ZM8.48441 20.4844C8.48441 21.4112 7.07816 21.415 7.07816 20.4844V10.6406C7.07816 9.71377 8.48441 9.70997 8.48441 10.6406V20.4844ZM12.7032 20.4844C12.7032 21.4112 11.2969 21.415 11.2969 20.4844V10.6406C11.2969 9.71377 12.7032 9.70997 12.7032 10.6406V20.4844ZM16.9219 20.4844C16.9219 21.4112 15.5157 21.415 15.5157 20.4844V10.6406C15.5157 10.252 15.8301 9.9375 16.2188 9.9375C16.6074 9.9375 16.9219 10.252 16.9219 10.6406V20.4844Z" fill="#E62E2E"/>
</svg>
