<svg width="27" height="24" viewBox="0 0 27 24" fill="none" xmlns="http://www.w3.org/2000/svg">
<path fill-rule="evenodd" clip-rule="evenodd" d="M9.19402 24H0.694862V23.071C0.694862 22.6434 1.04151 22.2968 1.46908 22.2968H1.62391V21.3678C1.62391 20.9402 1.97052 20.5936 2.39809 20.5936V6.81289H1.5465L0.540039 3.40643H5.03037V0H21.9078V3.40643H26.3981L25.3917 6.81289H24.5401V20.5936C24.9677 20.5936 25.3143 20.9402 25.3143 21.3678V22.2968H25.4691C25.8967 22.2968 26.2433 22.6434 26.2433 23.071V24H17.7537V23.071C17.7537 22.6434 18.1003 22.2968 18.5279 22.2968H18.6827V21.3678C18.6827 20.9491 19.0151 20.608 19.4304 20.594V13.0065C19.1565 9.9681 16.5787 7.58708 13.4691 7.58708C10.3594 7.58708 7.78162 9.9681 7.50779 13.0065V20.5937C7.92749 20.6028 8.26498 20.9459 8.26498 21.3678V21.8323V22.2968H8.4198C8.84737 22.2968 9.19402 22.6434 9.19402 23.071V24Z" fill="#855DCD"/>
</svg>
