<svg width="80" height="80" viewBox="0 0 80 80" fill="none" xmlns="http://www.w3.org/2000/svg">
<g clip-path="url(#clip0_2079_1296)">
<path d="M58.4639 4.50738L34.4129 28.5583C34.7138 30.7177 34.0342 32.9868 32.3737 34.6467C29.563 37.4579 25.0055 37.4579 22.1944 34.6467C19.3837 31.8361 19.3837 27.2786 22.1944 24.4674C23.8549 22.8074 26.1239 22.1278 28.2828 22.4287L49.5613 1.15018C46.4975 0.398615 43.2952 0 40 0C17.9084 0 0 17.9084 0 40C0 55.5902 8.91895 69.0974 21.9333 75.6971C22.0152 75.5989 22.102 75.504 22.1944 75.4117L47.9395 49.6665C47.6387 47.5077 48.3183 45.2386 49.9783 43.5786C52.7894 40.7674 57.347 40.7674 60.1576 43.5786C62.9688 46.3893 62.9688 50.9468 60.1576 53.7579C58.4976 55.4179 56.2285 56.0975 54.0692 55.7972L30.9048 78.9615C33.8267 79.6406 36.8711 80 40 80C62.0911 80 80 62.0911 80 40C80 24.5687 71.2617 11.1786 58.4639 4.50738ZM60.1576 30.4372C58.4976 32.0977 56.2285 32.7773 54.0692 32.4765L34.4129 52.1327C34.7138 54.2916 34.0342 56.5606 32.3737 58.2211C29.563 61.0318 25.0055 61.0318 22.1944 58.2211C19.3837 55.41 19.3837 50.8525 22.1944 48.0418C23.8549 46.3813 26.1239 45.7017 28.2828 46.0026L47.9395 26.3458C47.6387 24.1869 48.3183 21.9179 49.9783 20.2579C52.7894 17.4467 57.347 17.4467 60.1576 20.2579C62.9688 23.069 62.9688 27.6261 60.1576 30.4372Z" fill="url(#paint0_linear_2079_1296)"/>
</g>
<defs>
<linearGradient id="paint0_linear_2079_1296" x1="1.03125" y1="51.8056" x2="77.3055" y2="43.5681" gradientUnits="userSpaceOnUse">
<stop stop-color="#0CAC9C"/>
<stop offset="1" stop-color="#76E6D0"/>
</linearGradient>
<clipPath id="clip0_2079_1296">
<rect width="80" height="80" fill="white"/>
</clipPath>
</defs>
</svg>
