<svg width="80" height="81" viewBox="0 0 80 81" fill="none" xmlns="http://www.w3.org/2000/svg">
<g clip-path="url(#clip0_2843_648)">
<path d="M58.4639 5.00738L34.4129 29.0583C34.7138 31.2177 34.0342 33.4868 32.3737 35.1467C29.563 37.9579 25.0055 37.9579 22.1944 35.1467C19.3837 32.3361 19.3837 27.7786 22.1944 24.9674C23.8549 23.3074 26.1239 22.6278 28.2828 22.9287L49.5613 1.65018C46.4975 0.898615 43.2952 0.5 40 0.5C17.9084 0.5 0 18.4084 0 40.5C0 56.0902 8.91895 69.5974 21.9333 76.1971C22.0152 76.0989 22.102 76.004 22.1944 75.9117L47.9395 50.1665C47.6387 48.0077 48.3183 45.7386 49.9783 44.0786C52.7894 41.2674 57.347 41.2674 60.1576 44.0786C62.9688 46.8893 62.9688 51.4468 60.1576 54.2579C58.4976 55.9179 56.2285 56.5975 54.0692 56.2972L30.9048 79.4615C33.8267 80.1406 36.8711 80.5 40 80.5C62.0911 80.5 80 62.5911 80 40.5C80 25.0687 71.2617 11.6786 58.4639 5.00738ZM60.1576 30.9372C58.4976 32.5977 56.2285 33.2773 54.0692 32.9765L34.4129 52.6327C34.7138 54.7916 34.0342 57.0606 32.3737 58.7211C29.563 61.5318 25.0055 61.5318 22.1944 58.7211C19.3837 55.91 19.3837 51.3525 22.1944 48.5418C23.8549 46.8813 26.1239 46.2017 28.2828 46.5026L47.9395 26.8458C47.6387 24.6869 48.3183 22.4179 49.9783 20.7579C52.7894 17.9467 57.347 17.9467 60.1576 20.7579C62.9688 23.569 62.9688 28.1261 60.1576 30.9372Z" fill="url(#paint0_linear_2843_648)"/>
</g>
<defs>
<linearGradient id="paint0_linear_2843_648" x1="1.03125" y1="52.3056" x2="77.3055" y2="44.0681" gradientUnits="userSpaceOnUse">
<stop stop-color="#0CAC9C"/>
<stop offset="1" stop-color="#76E6D0"/>
</linearGradient>
<clipPath id="clip0_2843_648">
<rect width="80" height="80" fill="white" transform="translate(0 0.5)"/>
</clipPath>
</defs>
</svg>
